<?xml version="1.0" encoding="iso-8859-1"?>
<!-- Generator: Adobe Illustrator 19.0.0, SVG Export Plug-In . SVG Version: 6.00 Build 0)  -->
<svg version="1.1" id="Capa_1" xmlns="http://www.w3.org/2000/svg" xmlns:xlink="http://www.w3.org/1999/xlink" x="0px" y="0px"
	 viewBox="0 0 512 512" style="enable-background:new 0 0 512 512;" xml:space="preserve">
<path style="fill:#ECEFF1;" d="M472.256,128.427l-74.667-21.333c-1.578-0.429-3.229-0.517-4.843-0.256l-352,64
	c-5.068,0.927-8.748,5.344-8.747,10.496v256c0,5.159,3.692,9.578,8.768,10.496l352,64c0.627,0.109,1.262,0.166,1.899,0.171
	c0.989-0.006,1.973-0.15,2.923-0.427l74.667-21.333c4.577-1.304,7.736-5.481,7.744-10.24V138.667
	C479.992,133.908,476.832,129.731,472.256,128.427z"/>
<path style="fill:#F44336;" d="M202.667,298.667v-72.363l-75.84,8.363c-5.429,0.601-9.526,5.205-9.493,10.667v53.333H202.667z"/>
<path style="fill:#4CAF50;" d="M224,298.667h106.667V224c0-3.039-1.296-5.933-3.563-7.957c-2.26-2.019-5.261-3.001-8.277-2.709
	L224,224V298.667z"/>
<path style="fill:#FFC107;" d="M224,320v74.667l94.827,10.667H320c5.891,0,10.667-4.776,10.667-10.667V320H224z"/>
<path style="fill:#2196F3;" d="M202.667,320h-85.333v53.333c-0.033,5.462,4.065,10.066,9.493,10.667l75.84,8.533V320z"/>
<g>
	<path style="fill:#CFD8DC;" d="M149.333,128c-5.891,0-10.667-4.776-10.667-10.667V74.667C139.784,33.901,172.568,1.117,213.333,0
		C257.301,0,288,21.931,288,53.333V96c0,5.891-4.776,10.667-10.667,10.667S266.667,101.891,266.667,96V53.333
		c0-18.837-21.931-32-53.333-32C184.375,22.499,161.166,45.708,160,74.667v42.667C160,123.224,155.224,128,149.333,128z"/>
	<path style="fill:#CFD8DC;" d="M213.333,117.333c-5.891,0-10.667-4.776-10.667-10.667c0-7.765,1.28-47.339,26.517-62.485
		c5.103-2.943,11.626-1.191,14.569,3.912c2.868,4.974,1.285,11.325-3.582,14.37C228.486,74.067,222.561,90.263,224,106.667
		C224,112.558,219.224,117.333,213.333,117.333z"/>
	<path style="fill:#CFD8DC;" d="M320,96h-0.789c-5.872-0.432-10.284-5.541-9.856-11.413c1.121-10.575,0.268-21.267-2.517-31.531
		c-5.738-1.334-9.308-7.067-7.974-12.805c1.13-4.861,5.48-8.289,10.47-8.251c4.819,0.017,9.407,2.07,12.629,5.653
		c8.161,14.749,11.221,31.781,8.704,48.448C330.263,91.691,325.604,96.015,320,96z"/>
</g>
<path d="M394.667,512c-0.644-0.005-1.286-0.062-1.92-0.171l-352-64c-5.068-0.927-8.748-5.344-8.747-10.496v-256
	c-0.002-5.152,3.679-9.569,8.747-10.496l352-64c1.618-0.298,3.282-0.218,4.864,0.235l74.667,21.333
	c4.576,1.314,7.727,5.501,7.723,10.261V480c-0.005,4.753-3.155,8.928-7.723,10.24l-74.667,21.333
	C396.654,511.85,395.663,511.993,394.667,512z M53.333,428.437l340.8,61.867l64.533-18.432V146.709l-64.533-18.432l-340.8,61.952
	V428.437z"/>
<path d="M320,405.333h-1.195l-192-21.333c-5.42-0.611-9.506-5.212-9.472-10.667v-128c-0.034-5.454,4.052-10.056,9.472-10.667
	l192-21.333c5.854-0.66,11.134,3.551,11.794,9.405c0.047,0.419,0.07,0.84,0.067,1.262v170.667
	C330.667,400.558,325.891,405.333,320,405.333z M138.667,363.797l170.667,18.965V235.925l-170.667,18.965V363.797z"/>
<path d="M213.333,384c-5.891,0-10.667-4.776-10.667-10.667v-128c0-5.891,4.776-10.667,10.667-10.667
	c5.891,0,10.667,4.776,10.667,10.667v128C224,379.224,219.224,384,213.333,384z"/>
<path d="M320,320H128c-5.891,0-10.667-4.776-10.667-10.667s4.776-10.667,10.667-10.667h192c5.891,0,10.667,4.776,10.667,10.667
	S325.891,320,320,320z"/>
<path d="M149.333,128c-5.891,0-10.667-4.776-10.667-10.667V74.667C139.784,33.901,172.568,1.117,213.333,0
	C257.301,0,288,21.931,288,53.333V96c0,5.891-4.776,10.667-10.667,10.667S266.667,101.891,266.667,96V53.333
	c0-18.837-21.931-32-53.333-32C184.375,22.499,161.166,45.708,160,74.667v42.667C160,123.224,155.224,128,149.333,128z"/>
<path d="M213.333,117.333c-5.891,0-10.667-4.776-10.667-10.667c0-7.765,1.28-47.339,26.517-62.485
	c4.937-3.214,11.545-1.817,14.759,3.12c3.214,4.937,1.817,11.545-3.12,14.759c-0.219,0.143-0.444,0.278-0.674,0.404
	C228.485,74.079,222.571,90.268,224,106.667C224,112.558,219.224,117.333,213.333,117.333z"/>
<path d="M320,96h-0.789c-5.876-0.42-10.299-5.525-9.878-11.401c0-0.004,0.001-0.008,0.001-0.013
	c1.126-10.574,0.28-21.265-2.496-31.531c-5.738-1.334-9.308-7.067-7.974-12.805c1.13-4.861,5.48-8.289,10.47-8.251
	c4.816,0.011,9.403,2.057,12.629,5.632c8.143,14.763,11.202,31.795,8.704,48.469C330.263,91.691,325.604,96.015,320,96z"/>
<g>
</g>
<g>
</g>
<g>
</g>
<g>
</g>
<g>
</g>
<g>
</g>
<g>
</g>
<g>
</g>
<g>
</g>
<g>
</g>
<g>
</g>
<g>
</g>
<g>
</g>
<g>
</g>
<g>
</g>
</svg>
